<?xml version="1.0" encoding="utf-8"?>
<!-- Generator: Adobe Illustrator 26.0.3, SVG Export Plug-In . SVG Version: 6.00 Build 0)  -->
<svg version="1.1" id="Layer_1" xmlns="http://www.w3.org/2000/svg" xmlns:xlink="http://www.w3.org/1999/xlink" x="0px" y="0px"
	 viewBox="0 0 245.9 94.1" style="enable-background:new 0 0 245.9 94.1;" xml:space="preserve">
<style type="text/css">
	.st0{fill:#47A035;}
	.st1{fill:#002138;}
</style>
<g>
	<path id="Path_470" class="st0" d="M117.6,68.3v-0.6l0.5-0.1c0.1,0,0.1-0.1,0.1-0.2v-4.1c0-0.1,0-0.1-0.1-0.2l-0.5-0.1v-0.6h2.1
		v0.6l-0.4,0.1c-0.1,0-0.1,0.1-0.1,0.2v4.2h2.9v0.8H117.6z"/>
	<path id="Path_471" class="st0" d="M126.6,66.6c-0.3,0-0.8,0.1-1.5,0.1c-0.3,0-0.6,0-0.9-0.1l-0.4-0.3c0,0-0.1-0.1-0.2-0.1
		c-0.1,0-0.2,0.1-0.2,0.2v0.2c0,0.3,0.1,0.6,0.2,0.8c0.3,0.2,0.7,0.3,1.1,0.3c0.5,0,1-0.1,1.4-0.2l0.1,0.6c-0.5,0.2-1.1,0.2-1.6,0.2
		c-1.4,0-2.2-0.3-2.2-2.1c0-0.5,0.1-0.9,0.2-1.3c0.3-0.6,0.9-0.7,1.8-0.7c1.5,0,2,0.4,2,1.8C126.6,66.1,126.6,66.3,126.6,66.6
		 M124.7,64.9c-1.1,0-1.2,0.2-1.2,1.1c0.4,0,0.8,0.1,1.2,0.1c0,0,0.6,0,1.1,0C125.7,65,125.5,64.9,124.7,64.9"/>
	<path id="Path_472" class="st0" d="M130.7,68.3l0-0.3c0-0.1-0.1-0.2-0.2-0.2c0,0,0,0,0,0c-0.1,0-0.2,0-0.2,0.1l-0.5,0.4
		c0,0-0.4,0-0.7,0c-1.3,0-1.7-0.3-1.7-1.3c0-1,0.3-1.3,1.4-1.3l1.7,0v-0.2c0-0.3-0.1-0.5-0.4-0.6c-0.3-0.1-0.5-0.1-0.8-0.1
		c-0.5,0-1.1,0.1-1.6,0.2l-0.1-0.6c0.6-0.1,1.2-0.2,1.9-0.2c0.5,0,0.9,0,1.4,0.2c0.4,0.2,0.6,0.6,0.5,1v2.1c0,0.1,0,0.1,0.1,0.2
		l0.4,0.1v0.5L130.7,68.3z M130.6,66.4l-1.3,0c-0.6,0-0.9-0.1-0.9,0.7c0,0.6,0.3,0.6,0.9,0.6c0.5,0,0.9-0.1,1.4-0.2L130.6,66.4z"/>
	<path id="Path_473" class="st0" d="M136,65c0,0-0.4,0-0.7,0c-0.4,0-0.8,0-1.2,0.1v2.5c0,0.1,0,0.1,0.1,0.2l0.4,0.1v0.5h-1.9v-0.5
		l0.4-0.1c0.1,0,0.1,0,0.1-0.2V65c0-0.1,0-0.1-0.1-0.2l-0.4-0.1v-0.5h1.1l0.1,0.4c0,0.1,0.1,0.2,0.2,0.2c0.1,0,0.2,0,0.2-0.1
		l0.6-0.4c0.2,0,0.4,0,0.6,0c0.2,0,0.5,0,0.5,0L136,65z"/>
	<path id="Path_474" class="st0" d="M139.3,68.3v-0.5l0.4-0.1c0.1,0,0.1,0,0.1-0.2v-1.7c0-0.8-0.2-0.9-1-0.9c-0.4,0-0.7,0-1.1,0.1
		v2.5c0,0.1,0,0.1,0.1,0.2l0.4,0.1v0.5h-1.9v-0.5l0.4-0.1c0.1,0,0.1,0,0.1-0.2V65c0-0.1,0-0.1-0.1-0.2l-0.4-0.1v-0.5h1.2l0,0.3
		c0,0.1,0.1,0.2,0.2,0.2c0,0,0,0,0,0c0.1,0,0.2,0,0.2-0.1l0.6-0.4c0,0,0.3,0,0.5,0c1.3,0,1.6,0.3,1.6,1.5v1.8c0,0.1,0,0.1,0.1,0.2
		l0.4,0.1v0.5L139.3,68.3z"/>
	<path id="Path_475" class="st0" d="M142,68.3v-0.5l0.4-0.1c0.1,0,0.1,0,0.1-0.2V65c0-0.1,0-0.1-0.1-0.2l-0.4-0.1v-0.5h1.4v3.3
		c0,0.1,0,0.1,0.1,0.2l0.4,0.1v0.5L142,68.3z M142.3,62.5h1.1v1h-1.1L142.3,62.5z"/>
	<path id="Path_476" class="st0" d="M147.6,68.3v-0.5l0.4-0.1c0.1,0,0.1,0,0.1-0.2v-1.7c0-0.8-0.2-0.9-1-0.9c-0.4,0-0.7,0-1.1,0.1
		v2.5c0,0.1,0,0.1,0.1,0.2l0.4,0.1v0.5h-1.9v-0.5l0.4-0.1c0.1,0,0.1,0,0.1-0.2V65c0-0.1,0-0.1-0.1-0.2l-0.4-0.1v-0.5h1.2l0,0.3
		c0,0.1,0.1,0.2,0.2,0.2c0,0,0,0,0,0c0.1,0,0.2,0,0.2-0.1l0.5-0.4c0,0,0.4,0,0.5,0c1.3,0,1.6,0.3,1.6,1.5v1.8c0,0.1,0,0.1,0.1,0.2
		l0.4,0.1v0.5L147.6,68.3z"/>
	<path id="Path_477" class="st0" d="M151.1,67.3c0,0.3,0,0.4,0.7,0.4h1.1c1.1,0,1.5,0.2,1.5,1.2c0,0.9-0.4,1.2-2.3,1.2
		c-0.6,0-1.2-0.1-1.8-0.1l0.1-0.7c0.6,0.1,1.1,0.1,1.7,0.1c0.4,0,0.7,0,1.1-0.1c0.3-0.1,0.4-0.1,0.4-0.4c0-0.3-0.1-0.4-0.4-0.4
		c-0.1,0-0.3,0-0.4,0h-1.3c-0.5,0-1.2,0-1.2-0.7c0-0.1,0-0.1,0-0.2l0.5-0.5c0,0,0.1-0.1,0.1-0.1c0-0.1-0.1-0.1-0.1-0.1
		c-0.3-0.2-0.5-0.4-0.5-1.2c0-1.1,0.3-1.5,1.9-1.5l2.5,0v0.5l-1,0c-0.1,0-0.1,0-0.1,0.1c0,0.1,0,0.1,0.1,0.1l0.5,0.5
		c0,0,0,0.2,0,0.2c0,1.1-0.5,1.3-1.9,1.3c-0.3,0-0.6,0-1-0.1C151.1,67.1,151.1,67.2,151.1,67.3 M153.1,64.8c0,0-0.6,0-0.9,0
		c-0.8,0-1,0.1-1,0.9c0,0.8,0.2,0.8,1,0.8s1,0,1-0.9C153.2,65.4,153.2,65.1,153.1,64.8"/>
	<path id="Path_478" class="st0" d="M159.8,63.1c-0.2,0-0.5-0.1-0.7-0.1c-0.5,0-0.6,0.1-0.6,0.6v0.6h1.3v0.7h-1.3v2.6
		c0,0.1,0,0.1,0.1,0.2l0.4,0.1v0.5h-1.9v-0.5l0.4-0.1c0.1,0,0.1,0,0.1-0.2v-2.6h-0.8v-0.7h0.8v-0.5c-0.1-0.4,0.1-0.8,0.4-1.1
		c0.3-0.1,0.6-0.2,0.9-0.2c0.3,0,0.7,0,1,0.1L159.8,63.1z"/>
	<path id="Path_479" class="st0" d="M162.2,68.4c-1.7,0-2-0.4-2-2.1s0.3-2.1,2-2.1c1.7,0,2,0.4,2,2.1S163.9,68.4,162.2,68.4
		 M162.2,64.9c-1,0-1.1,0.1-1.1,1.4s0.1,1.4,1.1,1.4s1.1-0.1,1.1-1.4S163.2,64.9,162.2,64.9"/>
	<path id="Path_480" class="st0" d="M168.3,65c0,0-0.4,0-0.7,0c-0.4,0-0.8,0-1.2,0.1v2.5c0,0.1,0,0.1,0.1,0.2l0.4,0.1v0.5H165v-0.5
		l0.4-0.1c0.1,0,0.1,0,0.1-0.2V65c0-0.1,0-0.1-0.1-0.2l-0.4-0.1v-0.5h1.1l0.1,0.4c0,0.1,0.1,0.2,0.2,0.2c0,0,0,0,0,0
		c0.1,0,0.2,0,0.2-0.1l0.6-0.4c0.2,0,0.4,0,0.6,0c0.2,0,0.5,0,0.5,0L168.3,65z"/>
	<path id="Path_481" class="st0" d="M170.6,68.3v-0.5l0.4-0.1c0.1,0,0.1,0,0.1-0.2v-4.3c0-0.1,0-0.1-0.1-0.2l-0.4-0.1v-0.5h1.4v5
		c0,0.1,0,0.1,0.1,0.2l0.4,0.1v0.5L170.6,68.3z"/>
	<path id="Path_482" class="st0" d="M173.3,68.3v-0.5l0.4-0.1c0.1,0,0.1,0,0.1-0.2V65c0-0.1,0-0.1-0.1-0.2l-0.4-0.1v-0.5h1.4v3.3
		c0,0.1,0,0.1,0.1,0.2l0.4,0.1v0.5L173.3,68.3z M173.6,62.5h1.1v1h-1L173.6,62.5z"/>
	<path id="Path_483" class="st0" d="M178.6,63.1c-0.2,0-0.5-0.1-0.7-0.1c-0.5,0-0.6,0.1-0.6,0.6v0.6h1.3v0.7h-1.3v2.6
		c0,0.1,0,0.1,0.1,0.2l0.4,0.1v0.5H176v-0.5l0.4-0.1c0.1,0,0.1,0,0.1-0.2v-2.6h-0.8v-0.7h0.8v-0.5c-0.1-0.4,0.1-0.8,0.4-1.1
		c0.3-0.1,0.6-0.2,0.9-0.2c0.3,0,0.7,0,1,0.1L178.6,63.1z"/>
	<path id="Path_484" class="st0" d="M183.1,66.6c-0.3,0-0.8,0.1-1.5,0.1c-0.3,0-0.6,0-0.9-0.1l-0.4-0.3c0,0-0.1-0.1-0.2-0.1
		c-0.1,0-0.2,0.1-0.2,0.2v0.2c0,0.3,0.1,0.6,0.2,0.8c0.3,0.2,0.7,0.3,1.1,0.3c0.5,0,1-0.1,1.4-0.2l0.1,0.6c-0.5,0.2-1.1,0.2-1.6,0.2
		c-1.4,0-2.2-0.3-2.2-2.1c0-0.5,0.1-0.9,0.2-1.3c0.3-0.6,0.9-0.7,1.8-0.7c1.5,0,2,0.4,2,1.8C183.1,66.1,183.1,66.3,183.1,66.6
		 M181.1,64.9c-1.1,0-1.2,0.2-1.2,1.1c0.4,0,0.8,0.1,1.2,0.1c0,0,0.6,0,1.1,0C182.2,65,182,64.9,181.1,64.9"/>
</g>
<g>
	<rect id="Rectangle_147" x="75.9" y="47" class="st1" width="1.2" height="9.5"/>
	<path id="Path_485" class="st1" d="M86.7,56.6l-6.1-7.7v7.7h-1.1V47h1.2l6.1,7.7V47h1.1v9.5L86.7,56.6z"/>
	<path id="Path_486" class="st1" d="M92.2,48.1v8.4H91v-8.4h-2.4V47h6v1.1H92.2z"/>
	<path id="Path_487" class="st1" d="M95.3,56.6V47h5v1.1h-3.8v2.9h3.7v1.1h-3.7v3.3h3.9v1.1L95.3,56.6z"/>
	<path id="Path_488" class="st1" d="M108.5,56.6H107l-2.9-4.3h-0.3v4.3h-1.2V47h2.4c0.8-0.1,1.6,0.2,2.3,0.7
		c0.5,0.5,0.8,1.1,0.8,1.8c0,0.7-0.2,1.3-0.7,1.8c-0.5,0.5-1.2,0.8-1.9,0.9L108.5,56.6z M106.3,48.5c-0.4-0.3-1-0.5-1.5-0.4h-1v3.2
		h0.7c0.6,0,1.2-0.1,1.7-0.4c0.4-0.3,0.6-0.7,0.5-1.2C106.8,49.2,106.6,48.8,106.3,48.5"/>
	<path id="Path_489" class="st1" d="M117,56.6l-6.1-7.7v7.7h-1.1V47h1.2l6.1,7.7V47h1.1v9.5L117,56.6z"/>
	<path id="Path_490" class="st1" d="M126.5,56.6l-1-2.6h-4l-1,2.6h-1.3l3.8-9.5h1l3.8,9.5H126.5z M124.3,50.7
		c-0.1-0.2-0.2-0.5-0.4-0.9s-0.3-0.7-0.4-1c0,0.1,0,0.1-0.1,0.2c-0.1,0.3-0.2,0.6-0.4,0.9s-0.2,0.6-0.3,0.8L122,53h3.2L124.3,50.7z"
		/>
	<path id="Path_491" class="st1" d="M130.1,48.1v8.4h-1.2v-8.4h-2.4V47h6v1.1H130.1z"/>
	<rect id="Rectangle_148" x="133.2" y="47" class="st1" width="1.2" height="9.5"/>
	<path id="Path_492" class="st1" d="M145.4,53.7c-0.3,0.6-0.6,1.1-1.1,1.6c-0.5,0.5-1,0.8-1.6,1.1c-0.6,0.3-1.3,0.4-1.9,0.4
		c-0.7,0-1.3-0.1-1.9-0.4c-0.6-0.2-1.1-0.6-1.6-1.1c-0.5-0.4-0.8-1-1.1-1.6c-0.3-0.6-0.4-1.3-0.4-1.9c0-0.6,0.1-1.3,0.4-1.9
		c0.3-0.6,0.6-1.1,1.1-1.6c0.5-0.5,1-0.8,1.6-1.1c0.6-0.3,1.3-0.4,1.9-0.4c0.7,0,1.3,0.1,2,0.4c0.6,0.2,1.1,0.6,1.6,1.1
		c0.5,0.5,0.8,1,1.1,1.6c0.3,0.6,0.4,1.3,0.4,1.9C145.8,52.4,145.7,53.1,145.4,53.7 M144.3,50.3c-0.3-0.9-1.1-1.7-2-2
		c-0.5-0.2-1-0.3-1.5-0.3c-0.5,0-1,0.1-1.5,0.3c-0.4,0.2-0.9,0.5-1.2,0.8c-0.3,0.4-0.6,0.8-0.8,1.2c-0.2,0.5-0.3,1-0.3,1.4
		c0,0.5,0.1,1,0.3,1.4c0.2,0.5,0.5,0.9,0.8,1.2c0.3,0.4,0.8,0.6,1.2,0.8c0.5,0.2,1,0.3,1.5,0.3c0.5,0,1-0.1,1.5-0.3
		c0.9-0.4,1.6-1.1,2-2c0.2-0.5,0.3-1,0.3-1.5C144.6,51.3,144.5,50.8,144.3,50.3"/>
	<path id="Path_493" class="st1" d="M154.4,56.6l-6.1-7.7v7.7h-1.1V47h1.2l6.1,7.7V47h1.1v9.5L154.4,56.6z"/>
	<path id="Path_494" class="st1" d="M163.8,56.6l-1-2.6h-4l-1,2.6h-1.3l3.8-9.5h1l3.7,9.5H163.8z M161.6,50.7
		c-0.1-0.2-0.2-0.5-0.4-0.9s-0.3-0.7-0.4-1c0,0.1,0,0.1-0.1,0.2c-0.1,0.3-0.2,0.6-0.4,0.9s-0.2,0.6-0.3,0.8l-0.9,2.3h3.2L161.6,50.7
		z"/>
	<path id="Path_495" class="st1" d="M166.3,56.6V47h1.2v8.4h3.2v1.1L166.3,56.6z"/>
	<path id="Path_496" class="st1" d="M179.8,55.1c-0.1,0.3-0.3,0.6-0.6,0.9c-0.3,0.3-0.6,0.5-0.9,0.6c-0.4,0.1-0.8,0.2-1.2,0.2
		c-0.6,0-1.2-0.2-1.7-0.5c-0.5-0.3-0.9-0.8-1.1-1.4l1.1-0.5c0.1,0.4,0.4,0.7,0.7,1c0.3,0.3,0.7,0.4,1.1,0.4c0.4,0,0.8-0.1,1.1-0.4
		c0.3-0.3,0.4-0.7,0.4-1.1c0-0.4-0.1-0.8-0.4-1.1c-0.4-0.3-0.8-0.6-1.2-0.8c-0.1,0-0.1-0.1-0.2-0.1c-0.4-0.2-0.7-0.4-0.9-0.5
		c-0.2-0.1-0.5-0.3-0.7-0.5c-0.2-0.2-0.4-0.5-0.5-0.7c-0.1-0.3-0.2-0.7-0.2-1c0-0.3,0.1-0.7,0.2-1c0.1-0.3,0.3-0.6,0.6-0.8
		c0.2-0.2,0.5-0.4,0.9-0.6c0.3-0.1,0.7-0.2,1-0.2c1.1-0.1,2.1,0.6,2.6,1.6l-1,0.5c-0.1-0.3-0.4-0.6-0.7-0.8
		c-0.3-0.2-0.6-0.3-0.9-0.3c-0.4,0-0.7,0.1-1,0.4c-0.3,0.3-0.4,0.6-0.4,1c0,0.4,0.1,0.8,0.4,1.1c0.4,0.3,0.9,0.6,1.3,0.8h0
		c0.4,0.2,0.7,0.4,0.9,0.5c0.3,0.1,0.5,0.3,0.7,0.5c0.2,0.2,0.4,0.5,0.5,0.7c0.1,0.3,0.2,0.7,0.2,1C180,54.4,180,54.7,179.8,55.1"/>
	<path id="Path_497" class="st1" d="M185.6,56.7c-0.7,0-1.3-0.1-1.9-0.4c-0.6-0.2-1.1-0.6-1.5-1c-0.4-0.4-0.8-1-1-1.5
		c-0.2-0.6-0.4-1.3-0.4-1.9c0-0.7,0.1-1.4,0.4-2c0.2-0.6,0.6-1.1,1-1.6c0.4-0.4,1-0.8,1.6-1c0.6-0.2,1.3-0.4,1.9-0.4
		c0.9,0,1.7,0.2,2.5,0.5v1.3c-0.4-0.2-0.8-0.4-1.2-0.5c-0.5-0.1-0.9-0.2-1.4-0.2c-0.9,0-1.8,0.4-2.5,1.1c-0.3,0.3-0.6,0.8-0.7,1.2
		c-0.4,1-0.4,2,0,3c0.2,0.4,0.4,0.9,0.8,1.2c0.3,0.3,0.7,0.6,1.1,0.8c0.4,0.2,0.9,0.3,1.4,0.3c0.5,0,0.9-0.1,1.4-0.2
		c0.4-0.1,0.8-0.3,1.2-0.5v1.3C187.5,56.5,186.5,56.7,185.6,56.7"/>
	<path id="Path_498" class="st1" d="M195.6,56.6V52h-4.7v4.6h-1.2V47h1.2v3.9h4.7V47h1.2v9.5L195.6,56.6z"/>
	<path id="Path_499" class="st1" d="M207.8,53.7c-0.3,0.6-0.6,1.1-1.1,1.6c-0.5,0.5-1,0.8-1.6,1.1c-0.6,0.3-1.3,0.4-1.9,0.4
		c-0.7,0-1.3-0.1-1.9-0.4c-1.2-0.5-2.2-1.4-2.7-2.6c-0.3-0.6-0.4-1.3-0.4-1.9c0-0.6,0.1-1.3,0.4-1.9c0.3-0.6,0.6-1.1,1.1-1.6
		c0.5-0.5,1-0.8,1.6-1.1c0.6-0.3,1.3-0.4,1.9-0.4c0.7,0,1.3,0.1,2,0.4c1.2,0.5,2.2,1.4,2.7,2.6c0.3,0.6,0.4,1.3,0.4,1.9
		C208.2,52.4,208.1,53.1,207.8,53.7 M206.6,50.3c-0.2-0.5-0.4-0.9-0.8-1.2c-0.3-0.4-0.7-0.6-1.2-0.8c-0.5-0.2-1-0.3-1.5-0.3
		c-1,0-2,0.4-2.7,1.1c-0.3,0.4-0.6,0.8-0.8,1.2c-0.2,0.5-0.3,1-0.3,1.4c0,0.5,0.1,1,0.3,1.4c0.2,0.5,0.5,0.9,0.8,1.2
		c0.3,0.4,0.8,0.6,1.2,0.8c0.5,0.2,1,0.3,1.5,0.3c0.5,0,1-0.1,1.5-0.3c0.4-0.2,0.9-0.5,1.2-0.8c0.3-0.3,0.6-0.8,0.8-1.2
		c0.2-0.5,0.3-1,0.3-1.5C206.9,51.3,206.8,50.8,206.6,50.3"/>
	<path id="Path_500" class="st1" d="M218.7,53.7c-0.5,1.2-1.5,2.2-2.7,2.7c-0.6,0.3-1.3,0.4-2,0.4c-0.7,0-1.3-0.1-1.9-0.4
		c-0.6-0.2-1.1-0.6-1.6-1.1c-0.5-0.4-0.8-1-1.1-1.6c-0.3-0.6-0.4-1.3-0.4-1.9c0-0.6,0.1-1.3,0.4-1.9c0.3-0.6,0.6-1.1,1.1-1.6
		c0.5-0.5,1-0.8,1.6-1.1c0.6-0.3,1.3-0.4,1.9-0.4c0.7,0,1.3,0.1,2,0.4c1.2,0.5,2.2,1.4,2.7,2.6c0.3,0.6,0.4,1.3,0.4,1.9
		C219.1,52.4,219,53.1,218.7,53.7 M217.5,50.3c-0.2-0.5-0.4-0.9-0.8-1.2c-0.3-0.4-0.7-0.6-1.2-0.8c-0.5-0.2-1-0.3-1.5-0.3
		c-1,0-2,0.4-2.7,1.1c-0.3,0.4-0.6,0.8-0.8,1.2c-0.2,0.5-0.3,1-0.3,1.4c0,0.5,0.1,1,0.3,1.4c0.2,0.5,0.5,0.9,0.8,1.2
		c0.3,0.4,0.8,0.6,1.2,0.8c0.5,0.2,1,0.3,1.5,0.3c0.5,0,1-0.1,1.5-0.3c0.9-0.4,1.6-1.1,2-2c0.2-0.5,0.3-1,0.3-1.5
		C217.8,51.3,217.7,50.8,217.5,50.3"/>
	<path id="Path_501" class="st1" d="M220.4,56.6V47h1.2v8.4h3.2v1.1L220.4,56.6z"/>
</g>
<g>
	<path id="Path_502" class="st1" d="M84.6,41c-3.1,0.1-6.1-1.2-8.2-3.6l3.5-4c1.2,1.4,2.8,2.9,4.9,2.9c1.7,0.1,3.1-1.2,3.2-2.8
		c0-0.1,0-0.1,0-0.2c0-4.3-10.4-3.5-10.4-11.4c0-4.5,3.9-7.5,8.3-7.5c2.8,0,5.5,1.2,7.4,3.3l-3.4,3.6C89.1,20,87.6,19.1,86,19
		c-1.5-0.1-2.7,1-2.8,2.5c0,0.1,0,0.2,0,0.2c0,4.2,10.5,3.2,10.5,11C93.6,37.9,89.5,41,84.6,41"/>
	<path id="Path_503" class="st1" d="M102.2,15.1v15.6c0,2.1,0.2,3.1,1.2,4c1,1,2.4,1.5,3.8,1.5c1.3,0,2.5-0.4,3.4-1.3
		c1-1.1,1.5-2.5,1.4-4V15.1h5.4v15.3c0,3.3-0.9,6-2.9,7.9c-2.1,1.8-4.8,2.7-7.5,2.6c-2.9,0.1-5.7-0.9-7.9-2.8
		c-1.4-1.4-2.4-3.5-2.4-7.1V15.1H102.2z"/>
	<path id="Path_504" class="st1" d="M132.9,40.9c-7.8,0-12.9-5.8-12.9-13.3c0-7.5,5.2-13.2,13.2-13.2c4.5-0.2,8.7,2,11.2,5.8
		l-4.5,2.6c-1.5-2.2-4.1-3.5-6.8-3.4c-4.9,0-7.5,3.7-7.5,8.1c0,4.5,2.6,8.6,7.7,8.6c3.3,0,5.9-1.7,6.7-4.5h-6.8v-4.7h12.8v1
		C145.9,35.2,141.2,40.9,132.9,40.9"/>
	<path id="Path_505" class="st1" d="M153.9,15.1v15.6c0,2.1,0.2,3.1,1.2,4c1,1,2.4,1.5,3.8,1.5c1.3,0.1,2.5-0.4,3.4-1.3
		c1-1.1,1.5-2.5,1.4-4V15.1h5.4v15.3c0,3.3-0.9,6-2.9,7.9c-2.1,1.8-4.8,2.7-7.5,2.6c-2.9,0.1-5.7-0.9-7.9-2.8
		c-1.4-1.4-2.4-3.5-2.4-7.1V15.1H153.9z"/>
	<path id="Path_506" class="st1" d="M191.4,40.3l-8.9-12.5c-1.3-1.7-2.3-3.3-3.4-5c0.1,2,0.2,3.7,0.3,5.7l0.2,11.8h-5.3V15.1h5
		l8.6,12.1c1.3,1.8,2.5,3.6,3.6,5.5c-0.2-2.6-0.3-4.7-0.3-7.4l-0.1-10.3h5.2v25.2H191.4z"/>
	<path id="Path_507" class="st1" d="M218.2,40.3l-1.9-5.1h-10.6l-1.9,5.1h-5.9l10-25.2h5.9l10.5,25.2H218.2z M212.4,24.8
		c-0.5-1.3-1-2.8-1.4-4.4c-0.4,1.6-0.9,3.1-1.4,4.4l-2.1,5.7h7.1L212.4,24.8z"/>
</g>
<g>
	<path id="Path_508" class="st0" d="M56.4,23.5l-6.2,4.8c6.4,7.2,7.3,16.3,2.3,23.6c2-6.6-0.8-14.1-8-19.7l-4.4,3.7
		c6.4,6.5,7,15,1,21c0.9-4.9-2.2-10.8-8.5-15.6l-3.8,3.3c6.1,5.6,8.3,11.7,3.5,15.7c-2,1.6-4.4,2.5-6.9,2.8
		c-9.5,1.3-17.9-3-20.4-4.4c-0.3-0.2-0.5-0.3-0.8-0.5c0.5,0.4,1,0.8,1.6,1.2C20.6,70,43.3,70,56.6,59.5C69.2,49.6,68.9,34,56.4,23.5
		"/>
	<path id="Path_509" class="st0" d="M45.5,25l6.3-5.1c-0.2-0.2-0.4-0.3-0.7-0.5c-2-1.6-4.2-2.9-6.6-3.9l-5.9,4.3
		c2.2,1.4,4.2,3,6.2,4.6C45.1,24.6,45.3,24.8,45.5,25"/>
	<path id="Path_510" class="st1" d="M61.1,17.2c-0.3-0.3-0.7-0.5-1-0.7c-0.7-0.5-1.4-1-2.2-1.4c-0.2-0.1-0.5-0.3-0.8-0.4
		c-4-2.2-8.4-3.6-12.9-4h-0.1c-7.7-0.9-15.4,0.8-20.7,5c-8.7,6.8-8,18,1.3,25.7l4.3-3.4c-5.8-6.2-5.9-14.2-0.1-19.7
		c-1,4.3,1.3,9.5,6.3,14c0.2,0.2,0.4,0.4,0.6,0.5l4-3.2c-0.2-0.2-0.4-0.4-0.6-0.6c-4.8-5.1-6.4-10.3-2-13.7c1.9-1.4,4.2-2.3,6.6-2.5
		c6-0.2,11.8,1.4,16.9,4.5c-0.3-0.2-0.6-0.5-0.9-0.7c0,0,0,0,0,0C60.4,16.7,60.7,16.9,61.1,17.2"/>
	<path id="Path_511" class="st1" d="M18.1,41.4L18.1,41.4c-0.1-0.2-0.3-0.4-0.4-0.5c-1.2-1.6-2.2-3.2-3.2-5
		c-3.8-8-1.7-17.1,6.4-23.4C32.1,3.6,51,3.2,64,11.3c-0.5-0.4-1-0.8-1.6-1.2C47.7-0.3,25-0.2,11.7,10.3C4.4,16,1.4,23.6,2.7,31.1
		c0,0,0,0,0,0c1.5,10.4,11.5,18.5,11.5,18.5l6.6-5.3C19.7,43.4,18.9,42.4,18.1,41.4"/>
</g>
<g>
	<g>
		<path d="M61.8,80.7C61.6,80.9,61,81,60.2,81c-1.7,0-3-1.1-3-3.1c0-1.9,1.3-3.2,3.2-3.2c0.8,0,1.2,0.2,1.4,0.3l-0.2,0.6
			c-0.3-0.1-0.7-0.3-1.2-0.3c-1.4,0-2.4,0.9-2.4,2.5c0,1.5,0.9,2.4,2.3,2.4c0.5,0,1-0.1,1.3-0.3L61.8,80.7z"/>
		<path d="M63.1,78.9c0,1.1,0.7,1.5,1.5,1.5c0.6,0,0.9-0.1,1.2-0.2l0.1,0.6c-0.3,0.1-0.8,0.3-1.4,0.3c-1.3,0-2.1-0.9-2.1-2.2
			s0.8-2.3,2-2.3c1.4,0,1.8,1.3,1.8,2.1c0,0.2,0,0.3,0,0.4H63.1z M65.5,78.3c0-0.5-0.2-1.3-1.1-1.3c-0.8,0-1.2,0.7-1.2,1.3H65.5z"/>
		<path d="M67.2,77.7c0-0.5,0-0.8,0-1.2h0.7l0,0.7h0c0.2-0.4,0.7-0.8,1.4-0.8c0.6,0,1.5,0.4,1.5,1.9v2.6h-0.8v-2.5
			c0-0.7-0.3-1.3-1-1.3c-0.5,0-0.9,0.4-1.1,0.8c0,0.1-0.1,0.2-0.1,0.4v2.6h-0.8V77.7z"/>
		<path d="M73.1,75.3v1.3h1.1v0.6h-1.1v2.3c0,0.5,0.2,0.8,0.6,0.8c0.2,0,0.4,0,0.5-0.1l0,0.6C74.1,81,73.8,81,73.5,81
			c-0.4,0-0.7-0.1-0.9-0.3c-0.2-0.2-0.3-0.6-0.3-1.1v-2.4h-0.7v-0.6h0.7v-1L73.1,75.3z"/>
		<path d="M75.2,77.9c0-0.5,0-1,0-1.4h0.7l0,0.9h0c0.2-0.6,0.7-1,1.2-1c0.1,0,0.2,0,0.2,0v0.7c-0.1,0-0.2,0-0.3,0
			c-0.6,0-1,0.4-1.1,1c0,0.1,0,0.2,0,0.4v2.3h-0.8V77.9z"/>
		<path d="M80.5,80.9l-0.1-0.5h0C80.1,80.7,79.7,81,79,81c-0.9,0-1.3-0.6-1.3-1.3c0-1.1,0.9-1.6,2.6-1.6V78c0-0.4-0.1-1-1-1
			c-0.4,0-0.8,0.1-1.1,0.3L78,76.8c0.4-0.2,0.9-0.4,1.4-0.4c1.3,0,1.7,0.9,1.7,1.8v1.6c0,0.4,0,0.7,0.1,1H80.5z M80.3,78.7
			c-0.9,0-1.8,0.1-1.8,1c0,0.5,0.3,0.8,0.7,0.8c0.6,0,0.9-0.4,1.1-0.7c0-0.1,0-0.2,0-0.3V78.7z"/>
		<path d="M82.4,74.5h0.8v6.4h-0.8V74.5z"/>
		<path d="M86.4,74.9c0.3-0.1,0.9-0.1,1.4-0.1c0.8,0,1.3,0.1,1.7,0.4c0.3,0.2,0.5,0.6,0.5,1.1c0,0.6-0.4,1.1-1,1.3v0
			c0.6,0.1,1.3,0.6,1.3,1.5c0,0.5-0.2,0.9-0.5,1.2c-0.4,0.4-1.1,0.6-2.1,0.6c-0.5,0-1,0-1.2-0.1V74.9z M87.2,77.4h0.7
			c0.8,0,1.3-0.4,1.3-1c0-0.7-0.5-1-1.3-1c-0.4,0-0.6,0-0.7,0.1V77.4z M87.2,80.3c0.2,0,0.4,0,0.7,0c0.8,0,1.6-0.3,1.6-1.2
			c0-0.8-0.7-1.2-1.6-1.2h-0.6V80.3z"/>
		<path d="M95.3,78.7c0,1.6-1.1,2.3-2.2,2.3c-1.2,0-2.1-0.9-2.1-2.2c0-1.5,1-2.3,2.2-2.3C94.4,76.5,95.3,77.4,95.3,78.7z M91.8,78.7
			c0,1,0.5,1.7,1.3,1.7c0.8,0,1.3-0.7,1.3-1.7c0-0.7-0.4-1.7-1.3-1.7C92.2,77,91.8,77.9,91.8,78.7z"/>
		<path d="M98.7,80.9l-0.1-0.5h0c-0.2,0.3-0.7,0.6-1.3,0.6c-0.9,0-1.3-0.6-1.3-1.3c0-1.1,0.9-1.6,2.6-1.6V78c0-0.4-0.1-1-1-1
			c-0.4,0-0.8,0.1-1.1,0.3l-0.2-0.5c0.4-0.2,0.9-0.4,1.4-0.4c1.3,0,1.7,0.9,1.7,1.8v1.6c0,0.4,0,0.7,0.1,1H98.7z M98.6,78.7
			c-0.9,0-1.8,0.1-1.8,1c0,0.5,0.3,0.8,0.7,0.8c0.6,0,0.9-0.4,1.1-0.7c0-0.1,0-0.2,0-0.3V78.7z"/>
		<path d="M100.6,77.9c0-0.5,0-1,0-1.4h0.7l0,0.9h0c0.2-0.6,0.7-1,1.2-1c0.1,0,0.2,0,0.2,0v0.7c-0.1,0-0.2,0-0.3,0
			c-0.6,0-1,0.4-1.1,1c0,0.1,0,0.2,0,0.4v2.3h-0.8V77.9z"/>
		<path d="M107.2,74.5v5.3c0,0.4,0,0.8,0,1.1h-0.7l0-0.8h0c-0.2,0.5-0.8,0.9-1.5,0.9c-1.1,0-1.9-0.9-1.9-2.2c0-1.5,0.9-2.3,2-2.3
			c0.7,0,1.1,0.3,1.3,0.7h0v-2.6H107.2z M106.4,78.3c0-0.1,0-0.2,0-0.3c-0.1-0.5-0.5-0.9-1.1-0.9c-0.8,0-1.3,0.7-1.3,1.7
			c0,0.9,0.4,1.6,1.3,1.6c0.5,0,1-0.4,1.2-0.9c0-0.1,0-0.2,0-0.3V78.3z"/>
		<path d="M114.4,78.7c0,1.6-1.1,2.3-2.2,2.3c-1.2,0-2.1-0.9-2.1-2.2c0-1.5,1-2.3,2.2-2.3C113.5,76.5,114.4,77.4,114.4,78.7z
			 M110.9,78.7c0,1,0.5,1.7,1.3,1.7c0.8,0,1.3-0.7,1.3-1.7c0-0.7-0.4-1.7-1.3-1.7C111.3,77,110.9,77.9,110.9,78.7z"/>
		<path d="M115.5,80.9v-3.8h-0.6v-0.6h0.6v-0.2c0-0.6,0.1-1.2,0.5-1.5c0.3-0.3,0.7-0.4,1.1-0.4c0.3,0,0.5,0.1,0.7,0.1l-0.1,0.6
			c-0.1-0.1-0.3-0.1-0.5-0.1c-0.7,0-0.8,0.6-0.8,1.3v0.2h1.1v0.6h-1.1v3.8H115.5z"/>
		<path d="M119.8,80c0.4,0.2,0.9,0.4,1.4,0.4c0.8,0,1.3-0.4,1.3-1c0-0.6-0.3-0.9-1.1-1.2c-1-0.4-1.6-0.9-1.6-1.7
			c0-0.9,0.8-1.6,2-1.6c0.6,0,1.1,0.1,1.3,0.3l-0.2,0.6c-0.2-0.1-0.6-0.3-1.2-0.3c-0.8,0-1.1,0.5-1.1,0.9c0,0.6,0.4,0.8,1.2,1.2
			c1,0.4,1.5,0.9,1.5,1.8c0,0.9-0.7,1.7-2.1,1.7c-0.6,0-1.2-0.2-1.5-0.4L119.8,80z"/>
		<path d="M124.9,78.9c0,1.1,0.7,1.5,1.5,1.5c0.6,0,0.9-0.1,1.2-0.2l0.1,0.6c-0.3,0.1-0.8,0.3-1.5,0.3c-1.3,0-2.1-0.9-2.1-2.2
			s0.8-2.3,2-2.3c1.4,0,1.8,1.3,1.8,2.1c0,0.2,0,0.3,0,0.4H124.9z M127.2,78.3c0-0.5-0.2-1.3-1.1-1.3c-0.8,0-1.2,0.7-1.2,1.3H127.2z
			"/>
		<path d="M132,80.7c-0.2,0.1-0.7,0.3-1.3,0.3c-1.3,0-2.2-0.9-2.2-2.2c0-1.3,0.9-2.3,2.3-2.3c0.5,0,0.9,0.1,1.1,0.2l-0.2,0.6
			c-0.2-0.1-0.5-0.2-0.9-0.2c-1,0-1.5,0.7-1.5,1.6c0,1,0.6,1.6,1.5,1.6c0.4,0,0.7-0.1,1-0.2L132,80.7z"/>
		<path d="M136.8,78.7c0,1.6-1.1,2.3-2.2,2.3c-1.2,0-2.1-0.9-2.1-2.2c0-1.5,1-2.3,2.2-2.3C136,76.5,136.8,77.4,136.8,78.7z
			 M133.4,78.7c0,1,0.5,1.7,1.3,1.7c0.8,0,1.3-0.7,1.3-1.7c0-0.7-0.4-1.7-1.3-1.7C133.8,77,133.4,77.9,133.4,78.7z"/>
		<path d="M137.8,77.7c0-0.5,0-0.8,0-1.2h0.7l0,0.7h0c0.2-0.4,0.7-0.8,1.4-0.8c0.6,0,1.5,0.4,1.5,1.9v2.6h-0.8v-2.5
			c0-0.7-0.3-1.3-1-1.3c-0.5,0-0.9,0.4-1.1,0.8c0,0.1-0.1,0.2-0.1,0.4v2.6h-0.8V77.7z"/>
		<path d="M146.6,74.5v5.3c0,0.4,0,0.8,0,1.1h-0.7l0-0.8h0c-0.2,0.5-0.8,0.9-1.5,0.9c-1.1,0-1.9-0.9-1.9-2.2c0-1.5,0.9-2.3,2-2.3
			c0.7,0,1.1,0.3,1.3,0.7h0v-2.6H146.6z M145.8,78.3c0-0.1,0-0.2,0-0.3c-0.1-0.5-0.5-0.9-1.1-0.9c-0.8,0-1.3,0.7-1.3,1.7
			c0,0.9,0.4,1.6,1.3,1.6c0.5,0,1-0.4,1.2-0.9c0-0.1,0-0.2,0-0.3V78.3z"/>
		<path d="M150.3,80.9l-0.1-0.5h0c-0.2,0.3-0.7,0.6-1.3,0.6c-0.9,0-1.3-0.6-1.3-1.3c0-1.1,0.9-1.6,2.6-1.6V78c0-0.4-0.1-1-1-1
			c-0.4,0-0.8,0.1-1.1,0.3l-0.2-0.5c0.4-0.2,0.9-0.4,1.4-0.4c1.3,0,1.7,0.9,1.7,1.8v1.6c0,0.4,0,0.7,0.1,1H150.3z M150.2,78.7
			c-0.9,0-1.8,0.1-1.8,1c0,0.5,0.3,0.8,0.7,0.8c0.6,0,0.9-0.4,1.1-0.7c0-0.1,0-0.2,0-0.3V78.7z"/>
		<path d="M152.3,77.9c0-0.5,0-1,0-1.4h0.7l0,0.9h0c0.2-0.6,0.7-1,1.2-1c0.1,0,0.2,0,0.2,0v0.7c-0.1,0-0.2,0-0.3,0
			c-0.6,0-1,0.4-1.1,1c0,0.1,0,0.2,0,0.4v2.3h-0.8V77.9z"/>
		<path d="M155.7,76.5l1,2.6c0.1,0.3,0.2,0.6,0.3,0.9h0c0.1-0.3,0.2-0.6,0.3-0.9l0.9-2.6h0.8l-1.2,3.1c-0.6,1.5-1,2.3-1.5,2.7
			c-0.4,0.3-0.8,0.5-1,0.5l-0.2-0.7c0.2-0.1,0.5-0.2,0.7-0.4c0.2-0.2,0.5-0.5,0.7-0.9c0-0.1,0.1-0.1,0.1-0.2s0-0.1-0.1-0.2l-1.6-4
			H155.7z"/>
		<path d="M164.7,78.1h-2.4v2.2h2.6v0.7h-3.4v-6.1h3.3v0.7h-2.5v1.9h2.4V78.1z"/>
		<path d="M169.7,74.5v5.3c0,0.4,0,0.8,0,1.1H169l0-0.8h0c-0.2,0.5-0.8,0.9-1.5,0.9c-1.1,0-1.9-0.9-1.9-2.2c0-1.5,0.9-2.3,2-2.3
			c0.7,0,1.1,0.3,1.3,0.7h0v-2.6H169.7z M168.9,78.3c0-0.1,0-0.2,0-0.3c-0.1-0.5-0.5-0.9-1.1-0.9c-0.8,0-1.3,0.7-1.3,1.7
			c0,0.9,0.4,1.6,1.3,1.6c0.5,0,1-0.4,1.2-0.9c0-0.1,0-0.2,0-0.3V78.3z"/>
		<path d="M174.7,79.7c0,0.5,0,0.8,0,1.2H174l0-0.7h0c-0.2,0.4-0.7,0.8-1.4,0.8c-0.7,0-1.5-0.4-1.5-1.9v-2.5h0.8V79
			c0,0.8,0.3,1.4,1,1.4c0.5,0,0.9-0.4,1-0.7c0-0.1,0.1-0.3,0.1-0.4v-2.7h0.8V79.7z"/>
		<path d="M179.1,80.7c-0.2,0.1-0.7,0.3-1.3,0.3c-1.3,0-2.2-0.9-2.2-2.2c0-1.3,0.9-2.3,2.3-2.3c0.5,0,0.9,0.1,1.1,0.2l-0.2,0.6
			c-0.2-0.1-0.5-0.2-0.9-0.2c-1,0-1.5,0.7-1.5,1.6c0,1,0.6,1.6,1.5,1.6c0.4,0,0.7-0.1,1-0.2L179.1,80.7z"/>
		<path d="M182.4,80.9l-0.1-0.5h0c-0.2,0.3-0.7,0.6-1.3,0.6c-0.9,0-1.3-0.6-1.3-1.3c0-1.1,0.9-1.6,2.6-1.6V78c0-0.4-0.1-1-1-1
			c-0.4,0-0.8,0.1-1.1,0.3l-0.2-0.5c0.4-0.2,0.9-0.4,1.4-0.4c1.3,0,1.7,0.9,1.7,1.8v1.6c0,0.4,0,0.7,0.1,1H182.4z M182.3,78.7
			c-0.9,0-1.8,0.1-1.8,1c0,0.5,0.3,0.8,0.7,0.8c0.6,0,0.9-0.4,1.1-0.7c0-0.1,0-0.2,0-0.3V78.7z"/>
		<path d="M185.3,75.3v1.3h1.1v0.6h-1.1v2.3c0,0.5,0.2,0.8,0.6,0.8c0.2,0,0.4,0,0.5-0.1l0,0.6c-0.2,0.1-0.4,0.1-0.7,0.1
			c-0.4,0-0.7-0.1-0.9-0.3c-0.2-0.2-0.3-0.6-0.3-1.1v-2.4h-0.7v-0.6h0.7v-1L185.3,75.3z"/>
		<path d="M188.2,75.3c0,0.3-0.2,0.5-0.5,0.5c-0.3,0-0.5-0.2-0.5-0.5c0-0.3,0.2-0.5,0.5-0.5C188,74.8,188.2,75,188.2,75.3z
			 M187.3,80.9v-4.4h0.8v4.4H187.3z"/>
		<path d="M193.4,78.7c0,1.6-1.1,2.3-2.2,2.3c-1.2,0-2.1-0.9-2.1-2.2c0-1.5,1-2.3,2.2-2.3C192.5,76.5,193.4,77.4,193.4,78.7z
			 M189.9,78.7c0,1,0.5,1.7,1.3,1.7c0.8,0,1.3-0.7,1.3-1.7c0-0.7-0.4-1.7-1.3-1.7C190.3,77,189.9,77.9,189.9,78.7z"/>
		<path d="M194.4,77.7c0-0.5,0-0.8,0-1.2h0.7l0,0.7h0c0.2-0.4,0.7-0.8,1.4-0.8c0.6,0,1.5,0.4,1.5,1.9v2.6h-0.8v-2.5
			c0-0.7-0.3-1.3-1-1.3c-0.5,0-0.9,0.4-1.1,0.8c0,0.1-0.1,0.2-0.1,0.4v2.6h-0.8V77.7z"/>
		<path d="M203.1,78.2v0.6h-2.2v-0.6H203.1z"/>
		<path d="M206,80.9v-6.1h0.9l1.9,3.1c0.5,0.7,0.8,1.4,1.1,2l0,0c-0.1-0.8-0.1-1.5-0.1-2.5v-2.5h0.7v6.1h-0.8l-1.9-3.1
			c-0.4-0.7-0.8-1.4-1.1-2l0,0c0,0.8,0.1,1.5,0.1,2.5v2.6H206z"/>
		<path d="M212.3,78.9c0,1.1,0.7,1.5,1.5,1.5c0.6,0,0.9-0.1,1.2-0.2l0.1,0.6c-0.3,0.1-0.8,0.3-1.5,0.3c-1.3,0-2.1-0.9-2.1-2.2
			s0.8-2.3,2-2.3c1.4,0,1.8,1.3,1.8,2.1c0,0.2,0,0.3,0,0.4H212.3z M214.6,78.3c0-0.5-0.2-1.3-1.1-1.3c-0.8,0-1.2,0.7-1.2,1.3H214.6z
			"/>
		<path d="M216.7,76.5l0.6,2.2c0.1,0.5,0.2,0.9,0.3,1.4h0c0.1-0.4,0.2-0.9,0.4-1.4l0.7-2.2h0.7l0.7,2.2c0.2,0.5,0.3,1,0.4,1.4h0
			c0.1-0.4,0.2-0.9,0.3-1.4l0.6-2.2h0.8l-1.4,4.4h-0.7l-0.7-2.1c-0.2-0.5-0.3-0.9-0.4-1.4h0c-0.1,0.5-0.2,1-0.4,1.4l-0.7,2.1h-0.7
			l-1.3-4.4H216.7z"/>
		<path d="M224.9,74.9c0.5-0.1,1-0.1,1.7-0.1c1.1,0,1.9,0.3,2.5,0.8c0.5,0.5,0.9,1.2,0.9,2.2c0,1-0.3,1.8-0.9,2.4
			c-0.6,0.6-1.5,0.9-2.7,0.9c-0.6,0-1,0-1.4-0.1V74.9z M225.7,80.3c0.2,0,0.5,0,0.8,0c1.7,0,2.6-0.9,2.6-2.6c0-1.4-0.8-2.3-2.5-2.3
			c-0.4,0-0.7,0-0.9,0.1V80.3z"/>
		<path d="M231.4,78.9c0,1.1,0.7,1.5,1.5,1.5c0.6,0,0.9-0.1,1.2-0.2l0.1,0.6c-0.3,0.1-0.8,0.3-1.5,0.3c-1.3,0-2.1-0.9-2.1-2.2
			s0.8-2.3,2-2.3c1.4,0,1.8,1.3,1.8,2.1c0,0.2,0,0.3,0,0.4H231.4z M233.7,78.3c0-0.5-0.2-1.3-1.1-1.3c-0.8,0-1.2,0.7-1.2,1.3H233.7z
			"/>
		<path d="M235.4,74.5h0.8v6.4h-0.8V74.5z"/>
		<path d="M237.6,74.5h0.8v2.7h0c0.1-0.2,0.3-0.4,0.6-0.6c0.2-0.1,0.5-0.2,0.8-0.2c0.6,0,1.5,0.4,1.5,1.9v2.6h-0.8v-2.5
			c0-0.7-0.3-1.3-1-1.3c-0.5,0-0.9,0.4-1.1,0.8c0,0.1-0.1,0.2-0.1,0.4v2.6h-0.8V74.5z"/>
		<path d="M243.4,75.3c0,0.3-0.2,0.5-0.5,0.5c-0.3,0-0.5-0.2-0.5-0.5c0-0.3,0.2-0.5,0.5-0.5C243.2,74.8,243.4,75,243.4,75.3z
			 M242.5,80.9v-4.4h0.8v4.4H242.5z"/>
	</g>
	<g>
		<path d="M109.6,89.1L109,91h-0.8l2.1-6.1h0.9l2.1,6.1h-0.8l-0.6-1.9H109.6z M111.6,88.5l-0.6-1.7c-0.1-0.4-0.2-0.8-0.3-1.1h0
			c-0.1,0.4-0.2,0.7-0.3,1.1l-0.6,1.8H111.6z"/>
		<path d="M119.5,85.4c-0.2-0.1-0.5-0.2-0.9-0.2c-0.8,0-1.1,0.6-1.1,1.3v0.2h2.5V91h-0.8v-3.8h-1.7V91h-0.8v-3.8h-1.8V91h-0.8v-3.8
			h-0.6v-0.6h0.6v-0.2c0-0.5,0.1-1.1,0.5-1.4c0.3-0.3,0.6-0.4,1.1-0.4c0.3,0,0.6,0.1,0.8,0.2l-0.2,0.6c-0.1-0.1-0.3-0.2-0.5-0.2
			c-0.3,0-0.4,0.1-0.6,0.2c-0.2,0.2-0.3,0.6-0.3,1v0.2h1.8v-0.2c0-1.2,0.7-1.9,1.9-1.9c0.4,0,0.8,0.1,1.1,0.3L119.5,85.4z"/>
		<path d="M121.4,84.6h0.8V91h-0.8V84.6z"/>
		<path d="M124.4,85.4c0,0.3-0.2,0.5-0.5,0.5c-0.3,0-0.5-0.2-0.5-0.5c0-0.3,0.2-0.5,0.5-0.5C124.2,84.9,124.4,85.2,124.4,85.4z
			 M123.5,91v-4.4h0.8V91H123.5z"/>
		<path d="M128.1,91l-0.1-0.5h0c-0.2,0.3-0.7,0.6-1.3,0.6c-0.9,0-1.3-0.6-1.3-1.3c0-1.1,0.9-1.6,2.6-1.6v-0.1c0-0.4-0.1-1-1-1
			c-0.4,0-0.8,0.1-1.1,0.3l-0.2-0.5c0.4-0.2,0.9-0.4,1.4-0.4c1.3,0,1.7,0.9,1.7,1.8V90c0,0.4,0,0.7,0.1,1H128.1z M127.9,88.8
			c-0.9,0-1.8,0.1-1.8,1c0,0.5,0.3,0.8,0.7,0.8c0.6,0,0.9-0.4,1.1-0.7c0-0.1,0-0.2,0-0.3V88.8z"/>
		<path d="M130.9,85.4v1.3h1.1v0.6h-1.1v2.3c0,0.5,0.2,0.8,0.6,0.8c0.2,0,0.4,0,0.5-0.1l0,0.6c-0.2,0.1-0.4,0.1-0.7,0.1
			c-0.4,0-0.7-0.1-0.9-0.3c-0.2-0.2-0.3-0.6-0.3-1.1v-2.4h-0.7v-0.6h0.7v-1L130.9,85.4z"/>
		<path d="M133.8,85.4c0,0.3-0.2,0.5-0.5,0.5c-0.3,0-0.5-0.2-0.5-0.5c0-0.3,0.2-0.5,0.5-0.5C133.6,84.9,133.8,85.2,133.8,85.4z
			 M132.9,91v-4.4h0.8V91H132.9z"/>
		<path d="M139,88.8c0,1.6-1.1,2.3-2.2,2.3c-1.2,0-2.1-0.9-2.1-2.2c0-1.5,1-2.3,2.2-2.3C138.1,86.6,139,87.5,139,88.8z M135.5,88.9
			c0,1,0.5,1.7,1.3,1.7c0.8,0,1.3-0.7,1.3-1.7c0-0.7-0.4-1.7-1.3-1.7C135.9,87.2,135.5,88,135.5,88.9z"/>
		<path d="M140,87.8c0-0.5,0-0.8,0-1.2h0.7l0,0.7h0c0.2-0.4,0.7-0.8,1.4-0.8c0.6,0,1.5,0.4,1.5,1.9V91h-0.8v-2.5
			c0-0.7-0.3-1.3-1-1.3c-0.5,0-0.9,0.4-1.1,0.8c0,0.1-0.1,0.2-0.1,0.4V91H140V87.8z"/>
		<path d="M146.9,91V85h0.9l1.9,3.1c0.5,0.7,0.8,1.4,1.1,2l0,0c-0.1-0.8-0.1-1.5-0.1-2.5V85h0.7V91h-0.8l-1.9-3.1
			c-0.4-0.7-0.8-1.4-1.1-2l0,0c0,0.8,0.1,1.5,0.1,2.5V91H146.9z"/>
		<path d="M156.7,88.8c0,1.6-1.1,2.3-2.2,2.3c-1.2,0-2.1-0.9-2.1-2.2c0-1.5,1-2.3,2.2-2.3C155.9,86.6,156.7,87.5,156.7,88.8z
			 M153.3,88.9c0,1,0.5,1.7,1.3,1.7c0.8,0,1.3-0.7,1.3-1.7c0-0.7-0.4-1.7-1.3-1.7C153.7,87.2,153.3,88,153.3,88.9z"/>
		<path d="M157.3,90.6c0-0.3,0.2-0.6,0.5-0.6c0.3,0,0.5,0.2,0.5,0.6c0,0.3-0.2,0.6-0.5,0.6C157.5,91.1,157.3,90.9,157.3,90.6z"/>
		<path d="M162.8,85.9L162.8,85.9l-1,0.5l-0.2-0.6l1.3-0.7h0.7V91h-0.8V85.9z"/>
		<path d="M166.1,90.5c0.2,0,0.4,0,0.6,0c0.5-0.1,0.9-0.3,1.2-0.6c0.4-0.4,0.7-0.9,0.8-1.6h0c-0.3,0.4-0.8,0.6-1.4,0.6
			c-1.1,0-1.7-0.8-1.7-1.8c0-1.1,0.8-2.1,2-2.1c1.2,0,1.9,1,1.9,2.5c0,1.3-0.4,2.2-1,2.7c-0.5,0.4-1.1,0.7-1.7,0.8
			c-0.3,0-0.5,0.1-0.7,0V90.5z M166.4,87.1c0,0.7,0.4,1.2,1.1,1.2c0.5,0,0.9-0.3,1.2-0.6c0-0.1,0.1-0.2,0.1-0.3c0-1-0.4-1.8-1.2-1.8
			C166.9,85.7,166.4,86.3,166.4,87.1z"/>
		<path d="M170.5,90.1c0.2,0.1,0.7,0.4,1.3,0.4c1,0,1.3-0.6,1.3-1.1c0-0.8-0.7-1.2-1.5-1.2h-0.4v-0.6h0.4c0.6,0,1.3-0.3,1.3-1
			c0-0.5-0.3-0.9-1-0.9c-0.5,0-0.9,0.2-1.2,0.4l-0.2-0.6c0.3-0.2,0.9-0.5,1.5-0.5c1.2,0,1.7,0.7,1.7,1.4c0,0.6-0.4,1.1-1.1,1.4v0
			c0.7,0.1,1.3,0.7,1.3,1.5c0,0.9-0.7,1.8-2.1,1.8c-0.7,0-1.2-0.2-1.5-0.4L170.5,90.1z"/>
		<path d="M178.8,88c0,2-0.7,3.1-2,3.1c-1.1,0-1.9-1.1-1.9-3c0-2,0.8-3,2-3C178.1,85.1,178.8,86.2,178.8,88z M175.6,88.1
			c0,1.5,0.5,2.4,1.2,2.4c0.8,0,1.2-0.9,1.2-2.4c0-1.4-0.4-2.4-1.2-2.4C176.1,85.7,175.6,86.5,175.6,88.1z"/>
		<path d="M179.4,89.5c0-0.7,0.4-1.3,1.2-1.6l0,0c-0.6-0.3-0.9-0.8-0.9-1.3c0-0.9,0.8-1.6,1.8-1.6c1.1,0,1.7,0.7,1.7,1.4
			c0,0.5-0.2,1-1,1.4v0c0.7,0.3,1.2,0.8,1.2,1.5c0,1-0.9,1.7-2,1.7C180.2,91.1,179.4,90.4,179.4,89.5z M182.6,89.5
			c0-0.7-0.5-1.1-1.3-1.3c-0.7,0.2-1.1,0.6-1.1,1.2c0,0.6,0.4,1.1,1.2,1.1C182.1,90.5,182.6,90.1,182.6,89.5z M180.4,86.6
			c0,0.6,0.4,0.9,1.1,1.1c0.5-0.2,0.9-0.5,0.9-1.1c0-0.5-0.3-1-1-1C180.8,85.6,180.4,86.1,180.4,86.6z"/>
		<path d="M187.5,85.7c-0.2,0-0.4,0-0.6,0c-1.2,0.2-1.9,1.1-2,2.1h0c0.3-0.4,0.8-0.7,1.4-0.7c1,0,1.8,0.7,1.8,1.9
			c0,1.1-0.7,2.1-1.9,2.1c-1.3,0-2.1-1-2.1-2.5c0-1.2,0.4-2.1,1-2.6c0.5-0.5,1.1-0.8,1.9-0.9c0.2,0,0.4,0,0.6,0V85.7z M187.2,89.1
			c0-0.8-0.5-1.3-1.2-1.3c-0.5,0-0.9,0.3-1.1,0.7c-0.1,0.1-0.1,0.2-0.1,0.4c0,1,0.5,1.7,1.3,1.7C186.8,90.5,187.2,89.9,187.2,89.1z"
			/>
		<path d="M192.2,85.8H190l-0.2,1.5c0.1,0,0.3,0,0.5,0c0.5,0,0.9,0.1,1.3,0.3c0.5,0.3,0.8,0.8,0.8,1.5c0,1.1-0.9,2-2.2,2
			c-0.6,0-1.2-0.2-1.5-0.4l0.2-0.6c0.2,0.1,0.7,0.3,1.3,0.3c0.7,0,1.4-0.5,1.4-1.3c0-0.8-0.5-1.3-1.7-1.3c-0.3,0-0.6,0-0.8,0.1
			l0.4-2.8h2.8V85.8z"/>
	</g>
</g>
</svg>
